<?xml version="1.0" encoding="UTF-8"?>
<svg width="13px" height="13px" viewBox="0 0 13 13" version="1.1" xmlns="http://www.w3.org/2000/svg" xmlns:xlink="http://www.w3.org/1999/xlink">
    <!-- Generator: sketchtool 51.3 (57544) - http://www.bohemiancoding.com/sketch -->
    <title>50E4FD2B-9A5B-4CAD-832B-C8F2873376B9</title>
    <desc>Created with sketchtool.</desc>
    <defs></defs>
    <g id="Page-1" stroke="none" stroke-width="1" fill="none" fill-rule="evenodd">
        <g id="Homepage_UI-Quick-Fixes" transform="translate(-722.000000, -18.000000)" fill="#555555" fill-rule="nonzero">
            <g id="Header">
                <g id="Header_Quick-Links" transform="translate(722.000000, 18.000000)">
                    <path d="M12.7085492,10.2756217 L10.7009019,8.26775038 C10.3010158,7.86947022 9.6387966,7.881571 9.22497963,8.29553737 L8.21351833,9.30677458 C8.14961573,9.27155532 8.08347224,9.23476744 8.01393007,9.19573867 C7.37520283,8.84182806 6.50099581,8.35675091 5.5810747,7.43615754 C4.65842719,6.51362207 4.17290186,5.63807051 3.81790815,4.99893244 C3.78044801,4.93122033 3.74455648,4.86593585 3.70911313,4.803938 L4.38795223,4.12610729 L4.72169487,3.79195382 C5.13614676,3.37738989 5.14757528,2.71535743 4.74862286,2.31591948 L2.74097563,0.307824076 C2.3420232,-0.0910536543 1.67950522,-0.0789528692 1.26505333,0.335611064 L0.699229583,0.904684096 L0.714691697,0.920034166 C0.524963338,1.16212456 0.366420645,1.44133897 0.24843799,1.74243937 C0.139680317,2.02904871 0.071968208,2.30254886 0.0410066313,2.57660923 C-0.224090197,4.77432095 0.780200268,6.78286454 3.50571537,9.50841698 C7.27320517,13.2756453 10.3093071,12.9910528 10.4402869,12.9771593 C10.7255517,12.9430605 10.9989398,12.8749002 11.2767723,12.7670015 C11.5752583,12.6504008 11.854286,12.4920822 12.096227,12.3027646 L12.1085892,12.313745 L12.6818079,11.7524403 C13.0954008,11.3379511 13.1073148,10.6756946 12.7085492,10.2756217 Z" id="Icon_Phone"></path>
                </g>
            </g>
        </g>
    </g>
</svg>