<?xml version="1.0" encoding="UTF-8"?>
<svg width="13px" height="13px" viewBox="0 0 13 13" version="1.1" xmlns="http://www.w3.org/2000/svg" xmlns:xlink="http://www.w3.org/1999/xlink">
    <!-- Generator: sketchtool 51.3 (57544) - http://www.bohemiancoding.com/sketch -->
    <title>4D3936D9-A50C-4996-A838-034DFC07DD62</title>
    <desc>Created with sketchtool.</desc>
    <defs></defs>
    <g id="Page-1" stroke="none" stroke-width="1" fill="none" fill-rule="evenodd">
        <g id="Homepage_UI-Quick-Fixes" transform="translate(-912.000000, -18.000000)" fill="#555555" fill-rule="nonzero">
            <g id="Header">
                <g id="Header_Quick-Links" transform="translate(722.000000, 18.000000)">
                    <path d="M196.501625,0 L196.498375,0 C192.914437,0 190,2.91525 190,6.5 C190,7.921875 190.45825,9.23975 191.237437,10.3098125 L190.427375,12.7245625 L192.925813,11.925875 C193.953625,12.60675 195.179688,13 196.501625,13 C200.085563,13 203,10.0839375 203,6.5 C203,2.9160625 200.085563,0 196.501625,0 Z M200.283813,9.1788125 C200.127,9.621625 199.504625,9.988875 199.008188,10.096125 C198.668563,10.1684375 198.224938,10.226125 196.731562,9.607 C194.821375,8.815625 193.59125,6.8745625 193.495375,6.748625 C193.403562,6.6226875 192.7235,5.7208125 192.7235,4.7880625 C192.7235,3.8553125 193.197188,3.401125 193.388125,3.206125 C193.544938,3.0460625 193.804125,2.9729375 194.05275,2.9729375 C194.133187,2.9729375 194.2055,2.977 194.2705,2.98025 C194.461437,2.988375 194.557312,2.99975 194.68325,3.3011875 C194.840063,3.679 195.221937,4.61175 195.267437,4.707625 C195.31375,4.8035 195.360062,4.9335 195.295063,5.0594375 C195.234125,5.1894375 195.1805,5.247125 195.084625,5.357625 C194.98875,5.468125 194.89775,5.552625 194.801875,5.67125 C194.714125,5.7744375 194.615,5.8849375 194.7255,6.075875 C194.836,6.26275 195.217875,6.8859375 195.780125,7.3864375 C196.505687,8.032375 197.093938,8.23875 197.304375,8.3265 C197.461187,8.3915 197.648063,8.3760625 197.762625,8.2541875 C197.908062,8.097375 198.087625,7.837375 198.270438,7.5814375 C198.400438,7.3978125 198.564563,7.3750625 198.736813,7.4400625 C198.912313,7.501 199.841,7.9600625 200.031937,8.055125 C200.222875,8.151 200.348813,8.1965 200.395125,8.2769375 C200.440625,8.357375 200.440625,8.7351875 200.283813,9.1788125 Z" id="Icon_WhatsApp"></path>
                </g>
            </g>
        </g>
    </g>
</svg>