<?xml version="1.0" encoding="UTF-8"?>
<svg width="15px" height="11px" viewBox="0 0 15 11" version="1.1" xmlns="http://www.w3.org/2000/svg" xmlns:xlink="http://www.w3.org/1999/xlink">
    <!-- Generator: sketchtool 51.3 (57544) - http://www.bohemiancoding.com/sketch -->
    <title>47F9123B-4E81-4BDD-A302-A37045313818</title>
    <desc>Created with sketchtool.</desc>
    <defs></defs>
    <g id="Page-1" stroke="none" stroke-width="1" fill="none" fill-rule="evenodd">
        <g id="Homepage_UI-Quick-Fixes" transform="translate(-1064.000000, -19.000000)" fill="#555555" fill-rule="nonzero">
            <g id="Icon_Form" transform="translate(1064.000000, 19.000000)">
                <path d="M1.18017857,0.713035714 L6.55553571,4.97089286 C6.79928571,5.16375 7.13517857,5.24946429 7.46142857,5.23339286 C7.78714286,5.24946429 8.12303571,5.16428571 8.36678571,4.97089286 L13.7421429,0.713035714 C14.1728571,0.373928571 14.0753571,0.0958928571 13.5289286,0.0958928571 L7.46196429,0.0958928571 L1.395,0.0958928571 C0.848035714,0.0958928571 0.750535714,0.373928571 1.18017857,0.713035714 Z"></path>
                <path d="M14.1305357,1.83642857 L8.25642857,6.29625 C8.03678571,6.46125 7.74910714,6.54160714 7.4625,6.53785714 C7.17535714,6.54160714 6.88767857,6.46071429 6.66803571,6.29625 L0.792857143,1.83642857 C0.356785714,1.50589286 0,1.68321429 0,2.23017857 L0,9.5475 C0,10.0944643 0.447857143,10.5423214 0.994821429,10.5423214 L7.46142857,10.5423214 L13.9285714,10.5423214 C14.4755357,10.5423214 14.9233929,10.0944643 14.9233929,9.5475 L14.9233929,2.23017857 C14.9233929,1.68321429 14.5666071,1.50589286 14.1305357,1.83642857 Z"></path>
            </g>
        </g>
    </g>
</svg>