<svg xmlns="http://www.w3.org/2000/svg" width="31" height="30"><path d="M15.04 7.35c-4.25 0-7.677 3.428-7.677 7.677s3.428 7.677 7.677 7.677 7.677-3.428 7.677-7.677S19.3 7.35 15.04 7.35zm0 12.668a5 5 0 0 1-4.991-4.991 5 5 0 0 1 4.991-4.991 5 5 0 0 1 4.991 4.991 5 5 0 0 1-4.991 4.991zm9.782-12.982c0 .996-.802 1.79-1.79 1.79-.996 0-1.79-.802-1.79-1.79a1.79 1.79 0 1 1 3.581 0zm5.085 1.817c-.114-2.4-.66-4.523-2.42-6.274C25.737.83 23.612.28 21.214.16 18.742.02 11.332.02 8.86.16c-2.392.114-4.517.66-6.274 2.412S.287 6.448.167 8.846c-.14 2.472-.14 9.882 0 12.354.114 2.4.66 4.523 2.42 6.274s3.875 2.298 6.274 2.42c2.472.14 9.882.14 12.354 0 2.4-.114 4.523-.66 6.274-2.42 1.75-1.75 2.298-3.875 2.42-6.274.14-2.472.14-9.875 0-12.347zm-3.194 15c-.52 1.3-1.53 2.318-2.846 2.846-1.97.782-6.648.6-8.826.6s-6.862.174-8.826-.6c-1.3-.52-2.318-1.53-2.846-2.846-.782-1.97-.6-6.648-.6-8.826s-.174-6.862.6-8.826c.52-1.3 1.53-2.318 2.846-2.846 1.97-.782 6.648-.6 8.826-.6s6.862-.174 8.826.6c1.3.52 2.318 1.53 2.846 2.846.782 1.97.6 6.648.6 8.826s.18 6.862-.6 8.826z" fill="#4a4a49" fill-rule="nonzero"/></svg>