<?xml version="1.0" encoding="UTF-8"?>
<svg width="13px" height="13px" viewBox="0 0 13 13" version="1.1" xmlns="http://www.w3.org/2000/svg" xmlns:xlink="http://www.w3.org/1999/xlink">
    <!-- Generator: sketchtool 51.3 (57544) - http://www.bohemiancoding.com/sketch -->
    <title>88DDFB5B-B31B-44D0-B5ED-7FB77D9211CF</title>
    <desc>Created with sketchtool.</desc>
    <defs></defs>
    <g id="Symbols" stroke="none" stroke-width="1" fill="none" fill-rule="evenodd">
        <g id="Rectangle-6" fill-rule="nonzero">
            <rect fill-opacity="0" fill="#D8D8D8" x="0" y="0" width="13" height="13"></rect>
            <path d="M7.56912117,6.49959934 L10.777655,3.29106556 C11.0730043,2.99571617 11.0730043,2.51686143 10.777655,2.22155429 C10.4823056,1.92620491 10.0034931,1.92620491 9.7081437,2.22155429 L6.49956766,5.43013034 L3.29099161,2.22151204 C2.99564223,1.92616265 2.51682974,1.92616265 2.22148035,2.22151204 C1.92617322,2.51686143 1.92617322,2.99571617 2.22148035,3.2910233 L5.43005639,6.49955709 L2.22148035,9.70813313 C1.92617322,10.0034825 1.92617322,10.4823373 2.22148035,10.7776444 C2.51682974,11.0729938 2.99564223,11.0729938 3.29099161,10.7776444 L6.49956766,7.56906835 L9.7081437,10.7776444 C10.0034508,11.0729938 10.4823056,11.0729938 10.777655,10.7776444 C11.0730043,10.482295 11.0730043,10.0034825 10.777655,9.70813313 L7.56912117,6.49959934 Z" id="Icon_Close" fill="#555555"></path>
        </g>
    </g>
</svg>