<?xml version="1.0" encoding="UTF-8"?>
<svg width="13px" height="13px" viewBox="0 0 13 13" version="1.1" xmlns="http://www.w3.org/2000/svg" xmlns:xlink="http://www.w3.org/1999/xlink">
    <!-- Generator: sketchtool 51.3 (57544) - http://www.bohemiancoding.com/sketch -->
    <title>31A87871-474B-46F9-A5F7-99507FE99D37</title>
    <desc>Created with sketchtool.</desc>
    <defs></defs>
    <g id="Page-1" stroke="none" stroke-width="1" fill="none" fill-rule="evenodd">
        <g id="Homepage_UI-Quick-Fixes" transform="translate(-659.000000, -19.000000)" fill="#555555" fill-rule="nonzero" stroke="#555555" stroke-width="0.55">
            <g id="Header">
                <g id="Search_Icon" transform="translate(659.000000, 19.000000)">
                    <path d="M12.80175,11.6298448 L9.65435714,8.46927586 C10.4636071,7.54044828 10.907,6.3717931 10.907,5.15517241 C10.907,2.31265517 8.51175,0 5.56771429,0 C2.62367857,0 0.228428571,2.31265517 0.228428571,5.15517241 C0.228428571,7.99768966 2.62367857,10.3103448 5.56771429,10.3103448 C6.67294643,10.3103448 7.72617857,9.98848276 8.62666071,9.37748276 L11.7979643,12.5620345 C11.9305179,12.6949483 12.1088036,12.7682414 12.2998571,12.7682414 C12.4806964,12.7682414 12.65225,12.7016724 12.7824821,12.5806379 C13.0591964,12.3235517 13.0680179,11.8972414 12.80175,11.6298448 Z M5.56771429,1.34482759 C7.74382143,1.34482759 9.51414286,3.05410345 9.51414286,5.15517241 C9.51414286,7.25624138 7.74382143,8.96551724 5.56771429,8.96551724 C3.39160714,8.96551724 1.62128571,7.25624138 1.62128571,5.15517241 C1.62128571,3.05410345 3.39160714,1.34482759 5.56771429,1.34482759 Z" id="Shape"></path>
                </g>
            </g>
        </g>
    </g>
</svg>