<svg xmlns="http://www.w3.org/2000/svg" viewBox="0 0 54.62 42.97"><path d="M17.18 42.96c20.6 0 31.9-16.53 31.9-30.86v-1.4a22.34 22.34 0 0 0 5.59-5.62 22.93 22.93 0 0 1-6.43 1.71 11 11 0 0 0 4.93-6 22.93 22.93 0 0 1-7.11 2.64A11.37 11.37 0 0 0 37.87 0a11 11 0 0 0-11.26 10.84 10.49 10.49 0 0 0 .34 2.47A32.19 32.19 0 0 1 3.85 1.98a10.51 10.51 0 0 0-1.52 5.45 10.77 10.77 0 0 0 5 9 11.49 11.49 0 0 1-5.08-1.36v.14a11 11 0 0 0 9 10.64 11.51 11.51 0 0 1-3 .38 11.87 11.87 0 0 1-2.1-.2 11.18 11.18 0 0 0 10.47 7.53A23.29 23.29 0 0 1 0 38.09a32.44 32.44 0 0 0 17.18 4.87" fill="#4a4a49"/></svg>